<svg xmlns="http://www.w3.org/2000/svg" width="22" height="17.875" viewBox="0 0 22 17.875">
  <g id="dashboard" transform="translate(0 -2)">
    <path id="Path_180" data-name="Path 180" d="M22,13.137A11.151,11.151,0,0,0,11,2,11.151,11.151,0,0,0,0,13.137,11.034,11.034,0,0,0,1.238,18.5H7.975a4.015,4.015,0,0,0,6.05,0h6.738A11.034,11.034,0,0,0,22,13.137ZM19.25,8.875V10.25l-5.638,4.813a5.955,5.955,0,0,1,.138.687A2.75,2.75,0,1,1,11,13a2.59,2.59,0,0,1,1.1.275l5.775-4.4ZM13.75,4.75h1.375V6.125H13.75Zm-6.875,0H8.25V6.125H6.875Zm-4.125,11H1.375V14.375H2.75Zm1.375-5.5H2.75V8.875H4.125Zm16.5,5.5H19.25V14.375h1.375Z" transform="translate(0 0)" fill="#91a4ae"/>
    <path id="Path_181" data-name="Path 181" d="M9.75,12.375A1.375,1.375,0,1,1,8.375,11,1.376,1.376,0,0,1,9.75,12.375Z" transform="translate(2.625 3.375)" fill="#91a4ae"/>
  </g>
</svg>
